<svg width="30" height="30" viewBox="0 0 30 30" fill="none" xmlns="http://www.w3.org/2000/svg">
<circle cx="15" cy="15" r="15" fill="white"/>
<path d="M14.991 6C10.023 6 6 10.032 6 15C6 19.968 10.023 24 14.991 24C19.968 24 24 19.968 24 15C24 10.032 19.968 6 14.991 6ZM18.6 18.6C18.5167 18.6834 18.4178 18.7496 18.309 18.7948C18.2001 18.84 18.0834 18.8632 17.9655 18.8632C17.8476 18.8632 17.7309 18.84 17.622 18.7948C17.5132 18.7496 17.4143 18.6834 17.331 18.6L14.37 15.639C14.285 15.5556 14.2173 15.4562 14.171 15.3466C14.1246 15.2369 14.1005 15.1191 14.1 15V11.4C14.1 10.905 14.505 10.5 15 10.5C15.495 10.5 15.9 10.905 15.9 11.4V14.631L18.6 17.331C18.951 17.682 18.951 18.249 18.6 18.6Z" fill="#211E55"/>
</svg>
