<svg width="30" height="30" viewBox="0 0 30 30" fill="none" xmlns="http://www.w3.org/2000/svg">
<circle cx="15" cy="15" r="15" fill="white"/>
<path d="M23.7563 8.39531L21.2602 5.90156C21.0841 5.72471 20.8748 5.58439 20.6443 5.48867C20.4139 5.39294 20.1667 5.34369 19.9172 5.34375C19.4086 5.34375 18.9305 5.54297 18.5719 5.90156L15.8859 8.5875C15.7091 8.76358 15.5688 8.97286 15.473 9.20333C15.3773 9.4338 15.3281 9.68091 15.3281 9.93047C15.3281 10.4391 15.5273 10.9172 15.8859 11.2758L17.85 13.2398C17.3903 14.2532 16.7511 15.175 15.9633 15.9609C15.1775 16.7506 14.2557 17.3922 13.2422 17.8547L11.2781 15.8906C11.102 15.7138 10.8928 15.5735 10.6623 15.4777C10.4318 15.382 10.1847 15.3328 9.93516 15.3328C9.42656 15.3328 8.94844 15.532 8.58985 15.8906L5.90156 18.5742C5.7245 18.7506 5.58406 18.9603 5.48832 19.1912C5.39259 19.4221 5.34346 19.6696 5.34375 19.9195C5.34375 20.4281 5.54297 20.9062 5.90156 21.2648L8.39297 23.7562C8.96485 24.3305 9.75469 24.6562 10.5656 24.6562C10.7367 24.6562 10.9008 24.6422 11.0625 24.6141C14.2219 24.0938 17.3555 22.4133 19.8844 19.8867C22.4109 17.3625 24.0891 14.2312 24.6164 11.0625C24.7758 10.0945 24.4547 9.09844 23.7563 8.39531Z" fill="#211E55"/>
</svg>
