<svg width="16" height="38" viewBox="0 0 16 38" fill="none" xmlns="http://www.w3.org/2000/svg">
<path d="M9 1C9 0.447715 8.55228 -2.41411e-08 8 0C7.44772 2.41411e-08 7 0.447715 7 1L9 1ZM7.29289 37.7071C7.68342 38.0976 8.31658 38.0976 8.70711 37.7071L15.0711 31.3431C15.4616 30.9526 15.4616 30.3195 15.0711 29.9289C14.6805 29.5384 14.0474 29.5384 13.6569 29.9289L8 35.5858L2.34315 29.9289C1.95262 29.5384 1.31946 29.5384 0.928933 29.9289C0.538409 30.3195 0.538409 30.9526 0.928934 31.3431L7.29289 37.7071ZM7 1L7 37L9 37L9 1L7 1Z" fill="white"/>
</svg>
