<svg width="30" height="30" viewBox="0 0 30 30" fill="none" xmlns="http://www.w3.org/2000/svg">
<circle cx="15" cy="15" r="15" fill="white"/>
<path d="M18.777 5.70544C18.583 5.49028 18.3473 5.31684 18.0843 5.19569C17.8212 5.07454 17.5363 5.0082 17.2468 5.00071C16.9573 4.99323 16.6693 5.04475 16.4003 5.15214C16.1313 5.25954 15.887 5.42056 15.6822 5.62541L5.62551 15.6869C5.42225 15.8902 5.26211 16.1325 5.1547 16.3992C5.04728 16.6659 4.9948 16.9516 5.00041 17.2391C5.00601 17.5266 5.06958 17.81 5.1873 18.0723C5.30502 18.3346 5.47448 18.5704 5.68551 18.7657L6.83125 19.8261C7.4262 20.3763 8.24114 20.2537 8.73943 20.0512C8.98396 19.9518 9.25173 19.9241 9.51139 19.9715C9.77105 20.0188 10.0119 20.1392 10.2056 20.3185C10.3994 20.4978 10.538 20.7287 10.6054 20.984C10.6728 21.2393 10.666 21.5086 10.586 21.7602C10.4235 22.2729 10.3643 23.0949 10.9593 23.6459L11.8092 24.4321C12.2118 24.8047 12.7424 25.008 13.2908 24.9998C13.8393 24.9915 14.3635 24.7724 14.7548 24.3879L24.3607 14.9491C24.7537 14.5631 24.9824 14.0401 24.999 13.4894C25.0156 12.9386 24.8189 12.4028 24.4499 11.9938L23.5541 11.0009C23.025 10.414 22.2275 10.4465 21.7201 10.5891C21.471 10.6587 21.2074 10.6575 20.9589 10.5855C20.7105 10.5134 20.4871 10.3735 20.3138 10.1813C20.1405 9.98919 20.0243 9.75248 19.9782 9.49785C19.932 9.24321 19.9579 8.98075 20.0527 8.73999C20.246 8.24979 20.3602 7.45948 19.8311 6.87258L18.777 5.70544Z" fill="#211E55"/>
</svg>
