<svg width="30" height="30" viewBox="0 0 30 30" fill="none" xmlns="http://www.w3.org/2000/svg">
<circle cx="15" cy="15" r="15" fill="white"/>
<path d="M15 4.91675C17.188 4.91675 19.2865 5.78594 20.8336 7.33312C22.3808 8.88029 23.25 10.9787 23.25 13.1667C23.25 16.5822 20.6467 20.1609 15.55 23.9834C15.3913 24.1024 15.1983 24.1667 15 24.1667C14.8017 24.1667 14.6087 24.1024 14.45 23.9834C9.35333 20.1609 6.75 16.5822 6.75 13.1667C6.75 10.9787 7.61919 8.88029 9.16637 7.33312C10.7135 5.78594 12.812 4.91675 15 4.91675ZM15 10.4167C14.2707 10.4167 13.5712 10.7065 13.0555 11.2222C12.5397 11.7379 12.25 12.4374 12.25 13.1667C12.25 13.8961 12.5397 14.5956 13.0555 15.1113C13.5712 15.627 14.2707 15.9167 15 15.9167C15.7293 15.9167 16.4288 15.627 16.9445 15.1113C17.4603 14.5956 17.75 13.8961 17.75 13.1667C17.75 12.4374 17.4603 11.7379 16.9445 11.2222C16.4288 10.7065 15.7293 10.4167 15 10.4167Z" fill="#211E55"/>
</svg>
